<svg width="24" height="24" viewBox="0 0 24 24" fill="none" xmlns="http://www.w3.org/2000/svg">
<path fill-rule="evenodd" clip-rule="evenodd" d="M12 12C12 12.7956 11.6839 13.5587 11.1213 14.1213C10.5587 14.6839 9.79565 15 9 15C8.20435 15 7.44129 14.6839 6.87868 14.1213C6.31607 13.5587 6 12.7956 6 12C6 11.2044 6.31607 10.4413 6.87868 9.87868C7.44129 9.31607 8.20435 9 9 9C9.79565 9 10.5587 9.31607 11.1213 9.87868C11.6839 10.4413 12 11.2044 12 12ZM7.5 12C7.5 12.3978 7.65804 12.7794 7.93934 13.0607C8.22064 13.342 8.60218 13.5 9 13.5C9.39782 13.5 9.77936 13.342 10.0607 13.0607C10.342 12.7794 10.5 12.3978 10.5 12C10.5 11.6022 10.342 11.2206 10.0607 10.9393C9.77936 10.658 9.39782 10.5 9 10.5C8.60218 10.5 8.22064 10.658 7.93934 10.9393C7.65804 11.2206 7.5 11.6022 7.5 12ZM12 12C12 12.7956 12.3161 13.5587 12.8787 14.1213C13.4413 14.6839 14.2044 15 15 15C15.7956 15 16.5587 14.6839 17.1213 14.1213C17.6839 13.5587 18 12.7956 18 12C18 11.2044 17.6839 10.4413 17.1213 9.87868C16.5587 9.31607 15.7956 9 15 9C14.2044 9 13.4413 9.31607 12.8787 9.87868C12.3161 10.4413 12 11.2044 12 12ZM16.5 12C16.5 12.3978 16.342 12.7794 16.0607 13.0607C15.7794 13.342 15.3978 13.5 15 13.5C14.6022 13.5 14.2206 13.342 13.9393 13.0607C13.658 12.7794 13.5 12.3978 13.5 12C13.5 11.6022 13.658 11.2206 13.9393 10.9393C14.2206 10.658 14.6022 10.5 15 10.5C15.3978 10.5 15.7794 10.658 16.0607 10.9393C16.342 11.2206 16.5 11.6022 16.5 12ZM12.765 16.8765C13.5441 16.7163 14.2589 16.3303 14.82 15.7665L15.87 16.8315C14.8392 17.8516 13.4501 18.4276 12 18.4365C11.2687 18.4295 10.5455 18.2818 9.87 18.0015C9.20182 17.7297 8.59488 17.3268 8.085 16.8165L9.135 15.7515C9.60408 16.2179 10.1799 16.5628 10.8125 16.7562C11.4451 16.9497 12.1153 16.9858 12.765 16.8615V16.8765Z" fill="#1E1E23"/>
<path fill-rule="evenodd" clip-rule="evenodd" d="M14.25 2.24998C14.2502 2.71547 14.1061 3.16958 13.8375 3.54972C13.5688 3.92986 13.1889 4.21732 12.75 4.37248V4.49998H16.5C17.6935 4.49998 18.8381 4.97409 19.682 5.818C20.5259 6.66191 21 7.80651 21 8.99998V10.5L22.5 12V15L21 16.5V18C21 19.1935 20.5259 20.338 19.682 21.182C18.8381 22.0259 17.6935 22.5 16.5 22.5H7.5C6.30653 22.5 5.16193 22.0259 4.31802 21.182C3.47411 20.338 3 19.1935 3 18V16.5L1.5 15V12L3 10.5V8.99998C3 7.80651 3.47411 6.66191 4.31802 5.818C5.16193 4.97409 6.30653 4.49998 7.5 4.49998H11.25V4.37248C10.8611 4.235 10.5176 3.99327 10.2568 3.67373C9.99601 3.35418 9.82809 2.9691 9.77138 2.56057C9.71466 2.15204 9.77132 1.73578 9.93518 1.35728C10.099 0.978779 10.3638 0.652598 10.7005 0.414384C11.0372 0.176169 11.4329 0.0350859 11.8443 0.0065515C12.2558 -0.0219828 12.6672 0.0631295 13.0335 0.252588C13.3999 0.442046 13.7071 0.72856 13.9217 1.08082C14.1362 1.43308 14.2498 1.83753 14.25 2.24998ZM7.5 5.99998C6.70435 5.99998 5.94129 6.31605 5.37868 6.87866C4.81607 7.44127 4.5 8.20433 4.5 8.99998V18C4.5 18.7956 4.81607 19.5587 5.37868 20.1213C5.94129 20.6839 6.70435 21 7.5 21H16.5C17.2956 21 18.0587 20.6839 18.6213 20.1213C19.1839 19.5587 19.5 18.7956 19.5 18V8.99998C19.5 8.20433 19.1839 7.44127 18.6213 6.87866C18.0587 6.31605 17.2956 5.99998 16.5 5.99998H7.5Z" fill="#1E1E23"/>
</svg>
